<?xml version="1.0" encoding="UTF-8"?>
<svg version="1.1" xmlns="http://www.w3.org/2000/svg" width="1920" height="415">
<path d="M0 0 C20.13 0 40.26 0 61 0 C68.5603334 18.07279698 76.09767162 36.14926615 83.4375 54.3125 C88.48639855 66.8060069 93.56619339 79.28598953 98.6875 91.75 C104.56505077 106.06242912 110.44083247 120.37558344 116.29849243 134.69616699 C117.16985179 136.8253413 118.04203885 138.9541771 118.91513062 141.0826416 C123.79844747 152.98889914 128.58199159 164.91247822 133 177 C133.97614956 172.90845484 134.13676863 169.07003036 134.15821838 164.86894226 C134.16315636 164.16229913 134.16809434 163.455656 134.17318195 162.72759944 C134.18850697 160.3661721 134.19690397 158.00477185 134.20532227 155.64331055 C134.21490472 153.9480109 134.22491502 152.25271362 134.23532104 150.55741882 C134.26233635 145.9587032 134.28336418 141.35997735 134.30332303 136.76122642 C134.3252034 131.95390192 134.35258206 127.14660884 134.37937927 122.33930969 C134.42927842 113.2375898 134.47422756 104.13585245 134.51740164 95.03409845 C134.56679775 84.67140197 134.62170708 74.30873701 134.67708123 63.94607103 C134.79085863 42.63074338 134.89770691 21.31538565 135 0 C142.38728102 -0.02526692 149.77455098 -0.0428316 157.16186523 -0.05493164 C159.67716895 -0.05997363 162.19246972 -0.06680703 164.70776367 -0.07543945 C168.31429775 -0.08751094 171.92079323 -0.09322949 175.52734375 -0.09765625 C177.22575661 -0.10539818 177.22575661 -0.10539818 178.95848083 -0.11329651 C180.51998619 -0.11340981 180.51998619 -0.11340981 182.11303711 -0.11352539 C183.03459091 -0.115746 183.95614471 -0.11796661 184.90562439 -0.12025452 C187 0 187 0 188 1 C188.09726832 2.35430938 188.12555397 3.71365145 188.12584114 5.07144928 C188.12844889 5.95412271 188.13105664 6.83679614 188.13374341 7.74621725 C188.13151268 8.72703221 188.12928196 9.70784717 188.12698364 10.71838379 C188.12854363 11.7516714 188.13010362 12.784959 188.13171089 13.84955835 C188.13572575 17.34047494 188.13252937 20.83134866 188.12939453 24.32226562 C188.13074836 26.81337001 188.13252818 29.3044742 188.13470459 31.795578 C188.13880504 37.87648708 188.13818559 43.9573791 188.13529195 50.03828752 C188.13303812 54.9781882 188.1327253 59.91808541 188.13381577 64.85798645 C188.133969 65.55972863 188.13412223 66.26147081 188.13428011 66.98447791 C188.13459982 68.40983164 188.13492403 69.83518538 188.1352527 71.26053911 C188.13810764 84.64171729 188.13482024 98.02288862 188.12945233 111.40406567 C188.12498428 122.89812403 188.12576021 134.39217229 188.13037109 145.88623047 C188.1357166 159.2179034 188.13783295 172.54957033 188.13475883 185.88124418 C188.13444026 187.30150064 188.13412589 188.72175709 188.13381577 190.14201355 C188.13366149 190.84089775 188.13350721 191.53978195 188.13334826 192.25984445 C188.13248304 197.19665334 188.13394611 202.13345843 188.13629532 207.07026672 C188.13938468 213.70872366 188.1372009 220.3471644 188.13140106 226.9856205 C188.13007272 229.42983786 188.13046883 231.87405681 188.13266373 234.31827354 C188.13537233 237.63940995 188.13199767 240.96048385 188.12698364 244.28161621 C188.12921436 245.26243117 188.13144509 246.24324613 188.13374341 247.25378275 C188.13113566 248.13645618 188.12852791 249.01912961 188.12584114 249.92855072 C188.12567879 250.69618288 188.12551644 251.46381503 188.12534916 252.25470877 C188 254 188 254 187 255 C185.1281906 255.09386381 183.2528194 255.11743804 181.37866211 255.11352539 C180.17749252 255.11344986 178.97632294 255.11337433 177.73875427 255.11329651 C176.4314888 255.10813522 175.12422333 255.10297394 173.77734375 255.09765625 C172.43355868 255.09579198 171.08977293 255.09436812 169.74598694 255.09336853 C166.20317723 255.08954402 162.6604083 255.07971432 159.11761475 255.06866455 C155.50484773 255.05844899 151.89207416 255.0538706 148.27929688 255.04882812 C141.1861812 255.03809198 134.09309326 255.02101636 127 255 C126.54898926 253.92258545 126.09797852 252.8451709 125.63330078 251.73510742 C125.33029556 251.01126358 125.02729034 250.28741974 124.71510315 249.54164124 C124.02136178 247.88436616 123.32762624 246.22708864 122.63389587 244.56980896 C120.64335312 239.81454955 118.65269892 235.05933684 116.66186523 230.30419922 C112.59403541 220.58781427 108.52740946 210.87093098 104.46484375 201.15234375 C96.7811741 182.77467926 89.06911269 164.40950692 81.3125 146.0625 C75.67658261 132.72977543 70.05277317 119.39220043 64.47885132 106.03341675 C63.83594777 104.492633 63.19259041 102.95203851 62.54873657 101.41165161 C61.66634706 99.29982068 60.7859593 97.18716733 59.90625 95.07421875 C59.41447266 93.89432373 58.92269531 92.71442871 58.41601562 91.4987793 C56.87567165 87.69280179 55.44166532 83.84444085 54 80 C53.67 137.75 53.34 195.5 53 255 C35.51 255 18.02 255 0 255 C0 170.85 0 86.7 0 0 Z " fill="#000000" transform="translate(867,83)"/>
<path d="M0 0 C42.24 0 84.48 0 128 0 C128.33 0.66 128.66 1.32 129 2 C127.99951172 4.37915039 127.99951172 4.37915039 126.4296875 7.34765625 C125.57890625 8.96897461 125.57890625 8.96897461 124.7109375 10.62304688 C124.10507813 11.75806641 123.49921875 12.89308594 122.875 14.0625 C122.29234375 15.17044922 121.7096875 16.27839844 121.109375 17.41992188 C117.81718564 23.66105663 114.42794959 29.82969073 111 36 C91.86 36 72.72 36 53 36 C53.33 59.43 53.66 82.86 54 107 C79.08 107 104.16 107 130 107 C130 71.69 130 36.38 130 0 C147.49 0 164.98 0 183 0 C183.12032643 22.92886934 183.12032643 22.92886934 183.14648438 32.71679688 C183.16440458 39.39061658 183.18558464 46.06431258 183.22631836 52.73803711 C183.25895948 58.11968274 183.27686314 63.50119567 183.28463173 68.88293266 C183.29016667 70.93419928 183.30097509 72.98545879 183.31719017 75.03666878 C183.33902741 77.91400872 183.34196427 80.79080316 183.34057617 83.66821289 C183.351362 84.51266464 183.36214783 85.35711639 183.3732605 86.22715759 C183.34124704 92.37632131 182.47846013 97.49283184 177.9765625 102.046875 C177.20054687 102.60890625 176.42453125 103.1709375 175.625 103.75 C171.30576045 107.01016456 167.08631126 110.3396638 162.9375 113.8125 C162.36531738 114.28075195 161.79313477 114.74900391 161.20361328 115.23144531 C158.5593689 117.44444984 157.11191952 118.66424143 156 122 C156.53496094 122.22558594 157.06992188 122.45117188 157.62109375 122.68359375 C160.77064749 124.42645025 163.3600957 126.71197335 166.0625 129.0625 C167.21803763 130.05551706 168.37430027 131.04769101 169.53125 132.0390625 C170.39943359 132.78397949 170.39943359 132.78397949 171.28515625 133.54394531 C174.69105828 136.43585871 178.17903202 139.22674004 181.66015625 142.02734375 C182.81837891 143.00380859 182.81837891 143.00380859 184 144 C184.69889343 144.48873596 185.39778687 144.97747192 186.11785889 145.48101807 C189.09228696 149.46187291 188.52459098 153.43735807 188.45410156 158.27636719 C188.4545837 159.33745319 188.45506584 160.3985392 188.45556259 161.49177933 C188.45257653 164.9271522 188.42211404 168.36165739 188.390625 171.796875 C188.38474402 173.91747622 188.38066321 176.03808322 188.37841797 178.15869141 C188.35744466 186.02254947 188.30159979 193.88628325 188.25 201.75 C188.1675 219.3225 188.085 236.895 188 255 C125.96 255 63.92 255 0 255 C0 170.85 0 86.7 0 0 Z M53 140 C53 166.07 53 192.14 53 219 C79.4 219 105.8 219 133 219 C133 192.93 133 166.86 133 140 C106.6 140 80.2 140 53 140 Z " fill="#000000" transform="translate(1289,83)"/>
<path d="M0 0 C43.89 0 87.78 0 133 0 C132.06646008 4.66769959 130.58725912 8.13683714 128.40234375 12.26953125 C128.08881958 12.87390015 127.77529541 13.47826904 127.45227051 14.10095215 C126.28752777 16.34170737 125.11187525 18.57677811 123.9375 20.8125 C121.318125 25.824375 118.69875 30.83625 116 36 C95.87 36 75.74 36 55 36 C55 96.39 55 156.78 55 219 C81.4 219 107.8 219 135 219 C134.67 146.73 134.34 74.46 134 0 C152.48 0 170.96 0 190 0 C190 84.15 190 168.3 190 255 C127.3 255 64.6 255 0 255 C0 170.85 0 86.7 0 0 Z " fill="#000000" transform="translate(1496,83)"/>
<path d="M0 0 C62.37 0 124.74 0 189 0 C189 84.15 189 168.3 189 255 C126.63 255 64.26 255 0 255 C0 170.85 0 86.7 0 0 Z M132 4 C121.63918335 19.33434721 121.63918335 19.33434721 116 36 C96.2 36 76.4 36 56 36 C54.53153117 38.93693766 54.86632159 41.89321124 54.87974548 45.11196899 C54.87889106 45.85280082 54.87803663 46.59363265 54.87715632 47.35691392 C54.87550247 49.85206187 54.88102135 52.34714335 54.88647461 54.84228516 C54.88675653 56.6258087 54.88659866 58.40933236 54.8860321 60.19285583 C54.88574431 65.04589851 54.89163814 69.89891665 54.89860606 74.7519536 C54.90484259 79.81952828 54.90544364 84.88710347 54.90663147 89.9546814 C54.9097439 99.55588897 54.91795611 109.15708521 54.92798096 118.75828779 C54.93914483 129.6867825 54.94465324 140.61527775 54.94967639 151.54377675 C54.96013879 174.02919224 54.97848318 196.51459218 55 219 C81.07 219 107.14 219 134 219 C134 148.05 134 77.1 134 4 C133.34 4 132.68 4 132 4 Z " fill="#000000" transform="translate(205,83)"/>
<path d="M0 0 C55.44 0 110.88 0 168 0 C172.29 7.59 176.58 15.18 181 23 C182.85973198 26.12815437 182.85973198 26.12815437 184.7570343 29.31950378 C188.33105091 36.759444 187.89618638 44.81933451 187.88745117 52.88793945 C187.90708072 54.66520388 187.92912694 56.44244298 187.9533844 58.21965027 C188.01032378 63.01795644 188.02881343 67.81564265 188.03647399 72.61425424 C188.04299279 75.62437992 188.05780816 78.63435041 188.07546425 81.64443016 C188.13686773 92.18142108 188.16634984 102.71796221 188.16674805 113.25512695 C188.16797741 123.01816856 188.23989161 132.77894451 188.34512728 142.54136878 C188.4326918 150.96832252 188.46902125 159.3945401 188.46717244 167.82194489 C188.46694787 172.83513994 188.48624174 177.84621454 188.55788231 182.85894203 C189.08627835 222.46576906 189.08627835 222.46576906 175.79162025 239.45471478 C173.85890815 242.05107823 173.85890815 242.05107823 172.35472679 245.43362904 C167.95197374 254.32912157 167.95197374 254.32912157 162.621068 256.16131306 C158.27844053 256.60630063 154.11641521 256.61191269 149.76171875 256.47583008 C148.11524244 256.47215926 146.46874487 256.47422905 144.82228088 256.48158264 C140.36853597 256.48530251 135.91937259 256.40906988 131.46669006 256.31812119 C126.80778459 256.23666726 122.14876546 256.22920364 117.48925781 256.21379089 C108.67348019 256.17343751 99.85980667 256.06683704 91.0449543 255.93624753 C81.00656383 255.79077083 70.96807105 255.71942279 60.92888832 255.65420687 C40.2847526 255.5184436 19.642509 255.2898932 -1 255 C-1.10953633 205.23533011 -0.82034538 155.47260134 -0.55461788 105.7088238 C-0.48131647 91.967828 -0.4104299 78.22681971 -0.33936501 64.48581219 C-0.2281369 42.99053119 -0.11382837 21.49526775 0 0 Z M132 1 C131.29037109 2.43666016 131.29037109 2.43666016 130.56640625 3.90234375 C126.44620596 12.20804403 122.22634315 20.44467403 117.79516602 28.58959961 C115.72570395 32.09476498 115.72570395 32.09476498 115 36 C94.21 36 73.42 36 52 36 C52 96.39 52 156.78 52 219 C79.06 219 106.12 219 134 219 C134.40638994 187.18186263 134.40638994 187.18186263 134.7734375 155.36328125 C134.78378399 154.40075251 134.79413048 153.43822376 134.8047905 152.44652748 C135.33905431 102.28710759 134.73104828 52.15408464 134 2 C133.01 1.505 133.01 1.505 132 1 Z " fill="#000000" transform="translate(587,83)"/>
<path d="M0 0 C17.49 0 34.98 0 53 0 C53.33 35.31 53.66 70.62 54 107 C57.63 101.06 61.26 95.12 65 89 C70.79711704 79.99741824 70.79711704 79.99741824 73.05078125 76.546875 C76.40632014 71.38943575 79.70259207 66.19472422 83 61 C87.13941234 54.48203269 91.2950987 47.9759226 95.5 41.5 C100.93369088 33.13033052 106.28975121 24.71184983 111.640625 16.2890625 C112.17213669 15.48089584 112.70364838 14.67272919 113.25126648 13.84007263 C115.04430205 11.05328215 115.04430205 11.05328215 116.33540344 8.11500549 C117.9445185 4.90557133 119.44183272 2.53265873 122 0 C126.94736159 -1.51868733 131.78591516 -1.28810435 136.90234375 -1.07421875 C138.34959475 -1.05367614 139.79692279 -1.03803039 141.24427795 -1.02705383 C145.03576615 -0.98524802 148.82254375 -0.87740487 152.61218262 -0.75531006 C156.48624938 -0.64233593 160.36108546 -0.59245145 164.23632812 -0.53710938 C171.82635599 -0.41948689 179.41251564 -0.23202541 187 0 C185.29980572 4.44639468 183.06304147 8.34118008 180.515625 12.34765625 C180.07285217 13.04955582 179.63007935 13.75145538 179.17388916 14.47462463 C174.91786777 21.19043929 170.53280836 27.81808493 166.103302 34.42034912 C164.69217942 36.52368389 163.28413494 38.62905338 161.87670898 40.73486328 C159.89859126 43.69395474 157.91933199 46.65227677 155.93896484 49.60986328 C149.03738896 59.91772925 142.15007366 70.23503738 135.28411865 80.56666565 C132.25217313 85.12646544 129.20543534 89.67609707 126.15226746 94.22171021 C123.99096338 97.44456957 121.8394178 100.67386564 119.68991089 103.90460205 C118.6540485 105.4570927 117.61416253 107.00690691 116.57009888 108.55389404 C115.12194787 110.70086908 113.68838668 112.85691292 112.2578125 115.015625 C111.82461197 115.65055878 111.39141144 116.28549255 110.94508362 116.93966675 C108.67167835 120.40586123 107.1893457 122.8388387 108 127 C109.32228033 129.70093523 109.32228033 129.70093523 111.2265625 132.40234375 C112.26925293 133.96831299 112.26925293 133.96831299 113.33300781 135.56591797 C114.09698405 136.68979303 114.86098197 137.81365335 115.625 138.9375 C116.80166973 140.69609021 117.97419106 142.45740271 119.14672852 144.21875 C119.94208746 145.41268648 120.73880938 146.60571608 121.53686523 147.79785156 C125.19639042 153.26797362 128.73677224 158.8098785 132.25 164.375 C136.58288251 171.21555361 140.95132217 178.03029698 145.375 184.8125 C150.33162104 192.41219459 155.23913272 200.04212889 160.125 207.6875 C166.9831748 218.41705185 166.9831748 218.41705185 173.875 229.125 C174.30417725 229.79055908 174.73335449 230.45611816 175.17553711 231.1418457 C177.3773884 234.54317204 179.6131455 237.91705346 181.89453125 241.265625 C182.3632666 241.95640137 182.83200195 242.64717773 183.31494141 243.35888672 C184.2054406 244.6669163 185.10191575 245.97090497 186.00537109 247.27001953 C189 251.66826591 189 251.66826591 189 255 C180.77669571 255.23225061 172.55477225 255.40964516 164.3289938 255.51812172 C160.50875548 255.57020195 156.69076848 255.64075686 152.87182617 255.75439453 C149.18225795 255.86348864 145.4948462 255.92292513 141.80378914 255.94877243 C140.39973044 255.96717587 138.99578314 256.00312107 137.59264946 256.05730057 C126.62520775 256.463737 126.62520775 256.463737 122.65007019 252.88354492 C120.83936818 250.32825698 119.40862019 247.79334031 118 245 C116.93156219 243.31772753 115.84888442 241.64433064 114.74609375 239.984375 C113.64093405 238.24103617 112.53815266 236.49618784 111.4375 234.75 C110.20447588 232.80335451 108.97140157 230.8567408 107.73828125 228.91015625 C107.11646973 227.9267627 106.4946582 226.94336914 105.85400391 225.93017578 C102.95232737 221.34419714 100.03898265 216.76566558 97.125 212.1875 C96.55177002 211.28652588 95.97854004 210.38555176 95.38793945 209.45727539 C88.97271427 199.3782379 82.5288878 189.31753674 76.08496094 179.25683594 C73.911859 175.86231839 71.74083772 172.46647781 69.5703125 169.0703125 C68.83969913 167.92747864 68.10906783 166.78465624 67.37841797 165.6418457 C65.99419495 163.47659572 64.61038349 161.31108256 63.22705078 159.14526367 C62.60040527 158.16533447 61.97375977 157.18540527 61.328125 156.17578125 C60.7805957 155.31895752 60.23306641 154.46213379 59.66894531 153.5793457 C57.80687707 150.70152959 55.90134558 147.85201836 54 145 C53.67 181.3 53.34 217.6 53 255 C35.51 255 18.02 255 0 255 C0 170.85 0 86.7 0 0 Z " fill="#000000" transform="translate(1076,83)"/>
<path d="M0 0 C20.46 0 40.92 0 62 0 C66.29 7.92 70.58 15.84 75 24 C79.87636589 32.63841437 79.87636589 32.63841437 84.765625 41.26953125 C88.15623753 47.26106236 91.49848632 53.27829322 94.8125 59.3125 C95.33465088 60.25625488 95.85680176 61.20000977 96.39477539 62.17236328 C96.86906982 63.03974121 97.34336426 63.90711914 97.83203125 64.80078125 C98.25202393 65.56559814 98.6720166 66.33041504 99.10473633 67.1184082 C100 69 100 69 100 71 C100.66 71 101.32 71 102 71 C102.26699707 70.13697266 102.53399414 69.27394531 102.80908203 68.38476562 C103.99263772 65.0209247 105.41297574 62.00701252 107.0546875 58.84375 C107.50118149 57.98009827 107.50118149 57.98009827 107.95669556 57.09899902 C108.92480987 55.23020623 109.89958672 53.3649921 110.875 51.5 C111.55154058 50.19927507 112.22797175 48.89849322 112.90429688 47.59765625 C118.37911956 37.09146664 124.0177046 26.67834473 129.73681641 16.30322266 C132.12691774 11.94523735 134.45960038 7.55651802 136.79296875 3.16796875 C138 1 138 1 139 0 C140.90243762 -0.09391296 142.80838459 -0.11743658 144.71313477 -0.11352539 C145.9343251 -0.11344986 147.15551544 -0.11337433 148.41371155 -0.11329651 C149.75627686 -0.10818911 151.09884175 -0.10297311 152.44140625 -0.09765625 C153.80761158 -0.09579199 155.17381757 -0.09436813 156.5400238 -0.09336853 C160.14201695 -0.08954394 163.74397 -0.07971417 167.34594727 -0.06866455 C171.01903745 -0.05844916 174.69213409 -0.05387064 178.36523438 -0.04882812 C185.57684123 -0.03809184 192.788415 -0.02101614 200 0 C198.6662609 4.12577766 197.18011535 7.76138959 195.05078125 11.54296875 C194.4578125 12.60257813 193.86484375 13.6621875 193.25390625 14.75390625 C192.61324219 15.88699219 191.97257812 17.02007812 191.3125 18.1875 C190.63747533 19.39031903 189.96300629 20.59345002 189.2890625 21.796875 C187.88967866 24.2946693 186.487923 26.79110956 185.08447266 29.28662109 C181.86722998 35.01193832 178.68557853 40.75702673 175.5 46.5 C174.2527422 48.74486836 173.00534585 50.98965976 171.7578125 53.234375 C169.2294455 57.7851721 166.70367516 62.33739765 164.1796875 66.890625 C158.71262839 76.74895805 153.2394677 86.60268567 147.68066406 96.40966797 C146.06191715 99.26575454 144.44835096 102.12470931 142.8359375 104.984375 C141.10894122 108.04717586 139.36593257 111.09923005 137.6015625 114.140625 C136.94214332 115.30176264 136.28323382 116.46318999 135.625 117.625 C135.08101562 118.56601563 134.53703125 119.50703125 133.9765625 120.4765625 C132.78389821 123.55840704 133.15413645 124.84226618 134 128 C134.99053538 130.26010869 134.99053538 130.26010869 136.265625 132.4921875 C136.73653564 133.34965576 137.20744629 134.20712402 137.69262695 135.09057617 C138.20656006 136.00943604 138.72049316 136.9282959 139.25 137.875 C140.05473755 139.33160034 140.05473755 139.33160034 140.87573242 140.81762695 C145.17948463 148.58660835 149.54961065 156.3186204 153.93286133 164.04296875 C158.14269209 171.4641089 162.29981587 178.91341892 166.4375 186.375 C171.29555061 195.13457125 176.16623203 203.88672724 181.0625 212.625 C181.90977661 214.13827881 181.90977661 214.13827881 182.77416992 215.68212891 C185.48542103 220.52229717 188.20127081 225.35977946 190.9282074 230.19113159 C191.90680998 231.92553551 192.8839555 233.66076127 193.86108398 235.39599609 C195.09110867 237.58005698 196.3235704 239.76274773 197.55883789 241.94384766 C198.11176514 242.92659668 198.66469238 243.9093457 199.234375 244.921875 C199.72131836 245.78393555 200.20826172 246.64599609 200.70996094 247.53417969 C202 250 202 250 204 255 C183.21 255 162.42 255 141 255 C133.575 241.635 133.575 241.635 126 228 C121.51204849 220.12229719 121.51204849 220.12229719 117.0078125 212.25390625 C111.62217963 202.86426665 106.31794139 193.42808353 101 184 C98.43330036 186.3193409 96.93371812 188.6846946 95.3203125 191.734375 C94.55533447 193.16668457 94.55533447 193.16668457 93.77490234 194.62792969 C93.23043457 195.65821289 92.6859668 196.68849609 92.125 197.75 C87.63865438 206.14087028 83.08098045 214.4802124 78.375 222.75 C73.61665499 231.11494278 68.93626206 239.51791683 64.33740234 247.97167969 C63.69859131 249.1419873 63.69859131 249.1419873 63.046875 250.3359375 C62.67401367 251.02220215 62.30115234 251.7084668 61.91699219 252.41552734 C61 254 61 254 60 255 C58.03630847 255.0940067 56.06920801 255.11743381 54.10327148 255.11352539 C52.84203964 255.11344986 51.5808078 255.11337433 50.28135681 255.11329651 C48.89460206 255.1081891 47.50784771 255.10297309 46.12109375 255.09765625 C44.71004791 255.09579201 43.29900143 255.09436814 41.88795471 255.09336853 C38.16759465 255.08954379 34.4472734 255.0797139 30.72692871 255.06866455 C26.93319219 255.05844948 23.13944942 255.05387071 19.34570312 255.04882812 C11.89711769 255.03809158 4.44856428 255.0210157 -3 255 C-2.05804801 253.10110785 -1.11434538 251.20308406 -0.16992188 249.30541992 C0.35541138 248.24836349 0.88074463 247.19130707 1.42199707 246.10221863 C3.63532235 241.75101067 6.04596346 237.53112781 8.5 233.3125 C9.55436862 231.4836394 10.6077101 229.65418634 11.66015625 227.82421875 C12.47830811 226.40181885 12.47830811 226.40181885 13.31298828 224.95068359 C16.22259611 219.86160687 19.07931906 214.74308264 21.9375 209.625 C26.93892208 200.67288628 31.97179654 191.73944552 37.02832031 182.81835938 C41.94175527 174.13428718 46.77407974 165.40564418 51.59399414 156.66943359 C54.3710817 151.65386279 57.16848928 146.6631721 60.13671875 141.7578125 C60.60440674 140.98421387 61.07209473 140.21061523 61.55395508 139.41357422 C62.39824787 138.03081267 63.25262433 136.65412526 64.11987305 135.28564453 C66.68869699 131.09125851 68.21755959 127.94821568 68 123 C66.19108534 118.65289747 63.83121445 114.67271064 61.4375 110.625 C60.74631651 109.42524229 60.05705444 108.22437579 59.36962891 107.02246094 C57.95293349 104.55002418 56.52720131 102.08315924 55.09423828 99.62011719 C51.94999756 94.20336355 48.91990701 88.72297089 45.875 83.25 C40.90708591 74.37499585 35.90742467 65.51810642 30.89624023 56.66748047 C26.29896662 48.54300632 21.7406266 40.39703993 17.19091797 32.24584961 C14.30703263 27.08758496 11.40171593 21.94356657 8.44921875 16.82421875 C7.88920166 15.85242676 7.32918457 14.88063477 6.75219727 13.87939453 C5.69016749 12.04087998 4.62441478 10.20450954 3.55444336 8.37060547 C3.08530518 7.55865723 2.61616699 6.74670898 2.1328125 5.91015625 C1.71918457 5.19996338 1.30555664 4.48977051 0.87939453 3.75805664 C0 2 0 2 0 0 Z " fill="#000000" transform="translate(1709,83)"/>
<path d="M0 0 C58.41 0 116.82 0 177 0 C176.17569238 4.12153812 175.22909474 7.10067695 173.56640625 10.88671875 C172.8403418 12.5409082 172.8403418 12.5409082 172.09960938 14.22851562 C171.59236328 15.36998047 171.08511719 16.51144531 170.5625 17.6875 C170.05912109 18.84056641 169.55574219 19.99363281 169.03710938 21.18164062 C165.25530134 29.74469866 165.25530134 29.74469866 163 32 C160.94228935 32.24609566 160.94228935 32.24609566 158.35568237 32.24050903 C156.89055364 32.24464152 156.89055364 32.24464152 155.39582634 32.2488575 C154.31629251 32.24166128 153.23675869 32.23446507 152.12451172 32.22705078 C150.97445711 32.22729185 149.8244025 32.22753292 148.63949776 32.2277813 C144.90281666 32.22628402 141.16633308 32.21103216 137.4296875 32.1953125 C135.12833757 32.19237336 132.8269863 32.19033212 130.52563477 32.18920898 C121.97540284 32.17870676 113.4251995 32.15078454 104.875 32.125 C85.77625 32.08375 66.6775 32.0425 47 32 C47 95.03 47 158.06 47 223 C91.88 223 136.76 223 183 223 C184.31405013 226.9421504 183.35307422 228.50481714 181.9453125 232.3828125 C181.72430878 232.99768524 181.50330505 233.61255798 181.27560425 234.24606323 C180.80732049 235.54368749 180.33464422 236.83973379 179.85791016 238.13427734 C179.12632984 240.1213879 178.40773831 242.11281684 177.69140625 244.10546875 C174.16710723 253.83289277 174.16710723 253.83289277 173 255 C170.77241743 255.09703132 168.54169074 255.12186673 166.31199646 255.12025452 C165.60640091 255.12111053 164.90080536 255.12196655 164.17382812 255.12284851 C161.78439874 255.12451349 159.39503829 255.1189643 157.00561523 255.11352539 C155.27336409 255.11321929 153.54111282 255.11335214 151.80886173 255.11389065 C147.15341979 255.1141172 142.49800335 255.10830485 137.84256744 255.10128021 C133.48037126 255.09560184 129.1181814 255.095318 124.75598145 255.09460449 C111.9831509 255.08934894 99.21032513 255.0753879 86.4375 255.0625 C57.913125 255.041875 29.38875 255.02125 0 255 C0 170.85 0 86.7 0 0 Z " fill="#000000" transform="translate(0,83)"/>
<path d="M0 0 C17.49 0 34.98 0 53 0 C53.33 73.59 53.66 147.18 54 223 C74.46 223 94.92 223 116 223 C140.81026786 223.58035714 140.81026786 223.58035714 151 224 C149.14465133 231.19354485 146.98796222 238.17186323 144.375 245.125 C143.90707031 246.39730469 143.90707031 246.39730469 143.4296875 247.6953125 C141.13632015 253.86367985 141.13632015 253.86367985 140 255 C138.19039129 255.09641497 136.37697872 255.12187398 134.56480408 255.12025452 C133.38791236 255.12163201 132.21102064 255.12300951 130.99846554 255.12442875 C129.69049291 255.12083064 128.38252028 255.11723253 127.03491211 255.11352539 C125.63306716 255.11321928 124.23122205 255.11335217 122.82937717 255.11389065 C119.06276484 255.11411714 115.29618403 255.10830585 111.52957916 255.10128021 C107.99990231 255.09560078 104.47023327 255.09531794 100.94055176 255.09460449 C90.60619697 255.08934947 80.27184809 255.07538842 69.9375 255.0625 C35.3184375 255.0315625 35.3184375 255.0315625 0 255 C0 170.85 0 86.7 0 0 Z " fill="#000000" transform="translate(416,83)"/>
<path d="M0 0 C17.49 0 34.98 0 53 0 C53 84.15 53 168.3 53 255 C35.51 255 18.02 255 0 255 C-1.53608051 253.46391949 -1.12538823 252.0699838 -1.12584114 249.92855072 C-1.12844889 249.04587729 -1.13105664 248.16320386 -1.13374341 247.25378275 C-1.13151268 246.27296779 -1.12928196 245.29215283 -1.12698364 244.28161621 C-1.12854363 243.2483286 -1.13010362 242.215041 -1.13171089 241.15044165 C-1.13572575 237.65952506 -1.13252937 234.16865134 -1.12939453 230.67773438 C-1.13074836 228.18662999 -1.13252818 225.6955258 -1.13470459 223.204422 C-1.13880504 217.12351292 -1.13818559 211.0426209 -1.13529195 204.96171248 C-1.13303812 200.0218118 -1.1327253 195.08191459 -1.13381577 190.14201355 C-1.133969 189.44027137 -1.13412223 188.73852919 -1.13428011 188.01552209 C-1.13459982 186.59016836 -1.13492403 185.16481462 -1.1352527 183.73946089 C-1.13810764 170.35828271 -1.13482024 156.97711138 -1.12945233 143.59593433 C-1.12498428 132.10187597 -1.12576021 120.60782771 -1.13037109 109.11376953 C-1.1357166 95.7820966 -1.13783295 82.45042967 -1.13475883 69.11875582 C-1.13444026 67.69849936 -1.13412589 66.27824291 -1.13381577 64.85798645 C-1.13358435 63.80966015 -1.13358435 63.80966015 -1.13334826 62.74015555 C-1.13248304 57.80334666 -1.13394611 52.86654157 -1.13629532 47.92973328 C-1.13938468 41.29127634 -1.1372009 34.6528356 -1.13140106 28.0143795 C-1.13007272 25.57016214 -1.13046883 23.12594319 -1.13266373 20.68172646 C-1.13537233 17.36059005 -1.13199767 14.03951615 -1.12698364 10.71838379 C-1.12921436 9.73756883 -1.13144509 8.75675387 -1.13374341 7.74621725 C-1.13113566 6.86354382 -1.12852791 5.98087039 -1.12584114 5.07144928 C-1.12567879 4.30381712 -1.12551644 3.53618497 -1.12534916 2.74529123 C-1 1 -1 1 0 0 Z " fill="#000000" transform="translate(793,83)"/>
</svg>
