<?xml version="1.0" encoding="UTF-8" standalone="no"?>
<!DOCTYPE svg PUBLIC "-//W3C//DTD SVG 1.1//EN" "http://www.w3.org/Graphics/SVG/1.1/DTD/svg11.dtd">
<svg xmlns="http://www.w3.org/2000/svg" version="1.1" viewBox="0.00 0.00 1480.00 320.00">
<g stroke-width="2.00" fill="none" stroke-linecap="butt">
<path stroke="#808080" vector-effect="non-scaling-stroke" d="
  M 0.00 260.77
  L 132.78 260.76
  A 0.63 0.62 10.0 0 0 133.37 260.35
  L 141.69 237.38
  A 0.79 0.79 0.0 0 0 140.95 236.32
  L 36.48 236.22
  Q 36.00 236.22 36.00 235.73
  L 36.00 88.72
  A 0.23 0.22 -90.0 0 1 36.22 88.49
  L 124.98 88.50
  A 0.90 0.86 17.2 0 0 125.70 88.14
  Q 127.16 86.15 127.62 85.07
  Q 131.93 75.02 136.58 64.96
  Q 136.83 64.42 136.23 64.38
  Q 130.30 63.99 127.25 63.99
  Q 64.08 64.04 0.90 63.96
  A 0.62 0.61 4.3 0 0 0.29 64.48
  L 0.00 66.44"
/>
<path stroke="#808080" vector-effect="non-scaling-stroke" d="
  M 304.01 64.39
  A 0.37 0.37 0.0 0 0 303.64 64.02
  L 158.12 64.02
  A 0.37 0.37 0.0 0 0 157.75 64.39
  L 157.75 260.39
  A 0.37 0.37 0.0 0 0 158.12 260.76
  L 303.64 260.76
  A 0.37 0.37 0.0 0 0 304.01 260.39
  L 304.01 64.39"
/>
<path stroke="#808080" vector-effect="non-scaling-stroke" d="
  M 652.00 64.30
  A 0.30 0.30 0.0 0 0 651.70 64.00
  L 611.30 64.00
  A 0.30 0.30 0.0 0 0 611.00 64.30
  L 611.00 260.50
  A 0.30 0.30 0.0 0 0 611.30 260.80
  L 651.70 260.80
  A 0.30 0.30 0.0 0 0 652.00 260.50
  L 652.00 64.30"
/>
<path stroke="#808080" vector-effect="non-scaling-stroke" d="
  M 428.82 260.33
  L 437.00 236.98
  Q 437.14 236.57 436.70 236.56
  Q 400.87 236.36 365.01 236.20
  C 364.14 236.19 363.09 236.77 361.99 236.44
  A 0.70 0.69 -81.6 0 1 361.50 235.77
  L 361.50 64.50
  A 0.50 0.50 0.0 0 0 361.00 64.00
  L 321.25 64.00
  Q 320.75 64.00 320.75 64.50
  L 320.75 260.25
  Q 320.75 260.75 321.25 260.75
  L 428.24 260.75
  Q 428.68 260.75 428.82 260.33"
/>
<path stroke="#808080" vector-effect="non-scaling-stroke" d="
  M 554.32 64.27
  Q 551.17 64.08 548.00 64.08
  Q 500.28 64.00 452.71 63.99
  A 0.45 0.45 0.0 0 0 452.26 64.44
  C 452.34 129.72 452.38 195.01 452.10 260.32
  Q 452.10 260.75 452.53 260.75
  L 579.71 260.75
  Q 580.14 260.75 580.35 260.38
  Q 587.53 247.72 594.99 235.22
  C 595.72 234.00 596.49 232.35 596.49 230.74
  Q 596.51 161.53 596.29 92.31
  Q 596.28 90.19 594.70 87.30
  Q 588.39 75.79 581.71 64.45
  Q 581.46 64.02 580.96 64.01
  Q 568.44 63.96 556.00 64.02
  C 555.47 64.03 554.99 64.31 554.32 64.27"
/>
<path stroke="#808080" vector-effect="non-scaling-stroke" d="
  M 770.99 202.55
  Q 769.91 198.39 768.23 194.29
  Q 741.80 129.63 715.20 64.62
  A 1.01 1.01 0.0 0 0 714.27 64.00
  L 668.91 64.00
  A 0.66 0.66 0.0 0 0 668.25 64.66
  L 668.25 260.09
  Q 668.25 260.75 668.91 260.75
  L 708.75 260.75
  Q 709.25 260.75 709.25 260.25
  L 709.26 127.00
  Q 709.26 121.45 710.95 126.74
  Q 712.62 131.93 715.80 139.45
  Q 741.32 199.77 766.52 260.25
  Q 766.73 260.75 767.27 260.75
  L 812.25 260.75
  Q 812.75 260.75 812.75 260.25
  L 812.75 64.50
  A 0.50 0.50 0.0 0 0 812.25 64.00
  L 772.77 64.00
  A 0.52 0.51 -0.5 0 0 772.25 64.52
  Q 772.26 128.78 772.24 193.10
  C 772.23 196.05 771.86 199.36 771.73 202.47
  A 0.38 0.38 0.0 0 1 770.99 202.55"
/>
<path stroke="#808080" vector-effect="non-scaling-stroke" d="
  M 870.32 147.39
  L 870.09 65.05
  Q 870.09 64.00 869.04 64.00
  L 830.14 64.00
  Q 829.53 64.00 829.54 64.61
  L 829.60 260.40
  A 0.36 0.35 0.0 0 0 829.96 260.75
  L 869.54 260.75
  Q 870.01 260.75 870.01 260.28
  L 870.33 174.79
  A 0.31 0.31 0.0 0 1 870.90 174.62
  L 925.75 260.41
  Q 925.98 260.77 926.41 260.77
  L 974.02 260.74
  Q 975.91 260.74 974.88 259.15
  Q 943.78 210.91 912.20 161.76
  Q 910.96 159.83 911.80 158.56
  Q 942.45 112.43 972.84 66.12
  Q 973.31 65.42 973.56 65.09
  A 0.68 0.68 0.0 0 0 973.01 64.00
  L 924.61 64.00
  A 1.19 1.18 -73.7 0 0 923.61 64.55
  L 870.68 147.49
  A 0.20 0.19 -29.3 0 1 870.32 147.39"
/>
<path stroke="#808080" vector-effect="non-scaling-stroke" d="
  M 1034.50 146.66
  L 1034.50 92.00
  Q 1034.50 91.50 1035.00 91.50
  L 1078.42 91.50
  Q 1078.80 91.50 1078.97 91.17
  L 1092.54 65.59
  A 1.08 1.08 0.0 0 0 1091.59 64.00
  L 994.10 64.00
  A 0.28 0.28 0.0 0 0 993.82 64.28
  L 993.79 259.64
  Q 993.79 260.75 994.89 260.75
  L 1137.26 260.75
  Q 1138.27 260.75 1138.27 259.74
  L 1138.24 179.15
  A 3.07 3.07 0.0 0 0 1137.12 176.78
  L 1114.24 157.97
  Q 1112.92 156.88 1114.19 155.74
  Q 1123.38 147.46 1132.51 140.27
  C 1135.85 137.65 1134.28 119.53 1134.28 116.03
  Q 1134.24 90.29 1134.25 64.51
  Q 1134.25 64.00 1133.74 64.00
  L 1094.61 64.00
  A 0.78 0.77 88.9 0 0 1093.84 64.81
  C 1094.90 90.67 1094.26 116.80 1094.23 142.68
  Q 1094.22 143.77 1093.90 146.49
  A 0.56 0.55 -86.5 0 1 1093.35 146.98
  L 1034.91 147.07
  Q 1034.50 147.07 1034.50 146.66"
/>
<path stroke="#808080" vector-effect="non-scaling-stroke" d="
  M 1153.13 156.43
  Q 1152.85 207.60 1153.05 260.05
  Q 1153.06 260.75 1153.75 260.75
  L 1298.75 260.75
  Q 1299.25 260.75 1299.25 260.25
  L 1299.25 64.50
  Q 1299.25 64.00 1298.75 64.00
  L 1257.56 64.00
  A 0.97 0.83 89.0 0 0 1256.74 65.00
  C 1256.75 65.43 1257.00 65.75 1257.00 66.35
  Q 1257.00 149.67 1257.00 232.73
  A 0.52 0.52 0.0 0 1 1256.48 233.25
  L 1196.16 233.25
  A 0.59 0.59 0.0 0 1 1195.57 232.66
  L 1195.61 92.05
  A 0.58 0.58 0.0 0 1 1196.20 91.47
  L 1241.71 91.57
  Q 1242.17 91.57 1242.38 91.16
  L 1255.75 64.96
  A 0.44 0.44 0.0 0 0 1255.39 64.32
  Q 1254.48 64.25 1253.50 64.24
  Q 1203.54 64.00 1154.23 63.96
  Q 1153.40 63.96 1153.38 64.79
  C 1152.87 95.53 1153.30 125.97 1153.13 156.43"
/>
<path stroke="#808080" vector-effect="non-scaling-stroke" d="
  M 1395.21 203.87
  C 1395.26 204.37 1395.21 204.82 1395.46 205.27
  Q 1410.86 232.83 1426.45 260.34
  Q 1426.70 260.79 1427.23 260.79
  L 1473.34 260.73
  Q 1474.84 260.72 1474.11 259.41
  Q 1447.22 211.34 1419.92 162.52
  Q 1418.53 160.03 1419.78 157.80
  Q 1445.66 111.40 1471.48 64.90
  A 0.56 0.56 0.0 0 0 1470.99 64.07
  L 1425.97 63.97
  A 2.53 2.52 13.9 0 0 1423.74 65.31
  L 1395.40 119.05
  Q 1395.10 119.62 1394.79 119.05
  Q 1379.92 91.75 1364.99 64.47
  Q 1364.72 63.98 1364.16 63.99
  L 1318.34 64.03
  A 0.79 0.79 0.0 0 0 1317.65 65.21
  Q 1343.58 111.13 1369.31 157.05
  C 1370.91 159.91 1371.12 160.97 1369.54 163.79
  Q 1342.52 211.95 1315.46 260.20
  Q 1315.15 260.75 1315.78 260.75
  L 1362.70 260.75
  Q 1363.32 260.75 1363.63 260.21
  L 1394.87 203.80
  A 0.18 0.18 0.0 0 1 1395.21 203.87"
/>
<path stroke="#808080" vector-effect="non-scaling-stroke" d="
  M 246.32 91.69
  L 202.35 91.43
  A 1.58 1.58 0.0 0 0 200.76 93.01
  Q 200.75 162.79 200.72 233.19
  A 0.08 0.07 0.0 0 0 200.80 233.26
  L 261.37 233.25
  Q 261.75 233.25 261.75 232.88
  L 261.75 67.67
  Q 261.75 66.73 260.81 66.77
  Q 259.72 66.82 258.90 68.44
  Q 253.20 79.73 247.26 91.13
  A 1.07 1.06 14.0 0 1 246.32 91.69"
/>
<path stroke="#808080" vector-effect="non-scaling-stroke" d="
  M 540.62 91.49
  L 493.30 91.67
  Q 492.78 91.68 492.78 92.20
  L 492.69 232.62
  Q 492.69 233.25 493.31 233.25
  L 555.49 233.25
  Q 556.00 233.25 556.00 232.74
  Q 556.52 150.81 556.06 68.88
  C 556.05 67.85 555.63 66.47 555.56 65.32
  A 0.72 0.72 0.0 0 0 554.22 64.99
  C 553.16 66.72 552.97 68.82 552.05 70.50
  Q 546.40 80.74 541.13 91.17
  A 0.59 0.59 0.0 0 1 540.62 91.49"
/>
<path stroke="#808080" vector-effect="non-scaling-stroke" d="
  M 1096.00 171.91
  A 0.41 0.41 0.0 0 0 1095.59 171.50
  L 1034.91 171.50
  A 0.41 0.41 0.0 0 0 1034.50 171.91
  L 1034.50 232.85
  A 0.41 0.41 0.0 0 0 1034.91 233.26
  L 1095.59 233.26
  A 0.41 0.41 0.0 0 0 1096.00 232.85
  L 1096.00 171.91"
/>
</g>
<path fill="#ffffff" d="
  M 0.00 0.00
  L 1480.00 0.00
  L 1480.00 320.00
  L 0.00 320.00
  L 0.00 260.77
  L 132.78 260.76
  A 0.63 0.62 10.0 0 0 133.37 260.35
  L 141.69 237.38
  A 0.79 0.79 0.0 0 0 140.95 236.32
  L 36.48 236.22
  Q 36.00 236.22 36.00 235.73
  L 36.00 88.72
  A 0.23 0.22 -90.0 0 1 36.22 88.49
  L 124.98 88.50
  A 0.90 0.86 17.2 0 0 125.70 88.14
  Q 127.16 86.15 127.62 85.07
  Q 131.93 75.02 136.58 64.96
  Q 136.83 64.42 136.23 64.38
  Q 130.30 63.99 127.25 63.99
  Q 64.08 64.04 0.90 63.96
  A 0.62 0.61 4.3 0 0 0.29 64.48
  L 0.00 66.44
  L 0.00 0.00
  Z
  M 304.01 64.39
  A 0.37 0.37 0.0 0 0 303.64 64.02
  L 158.12 64.02
  A 0.37 0.37 0.0 0 0 157.75 64.39
  L 157.75 260.39
  A 0.37 0.37 0.0 0 0 158.12 260.76
  L 303.64 260.76
  A 0.37 0.37 0.0 0 0 304.01 260.39
  L 304.01 64.39
  Z
  M 652.00 64.30
  A 0.30 0.30 0.0 0 0 651.70 64.00
  L 611.30 64.00
  A 0.30 0.30 0.0 0 0 611.00 64.30
  L 611.00 260.50
  A 0.30 0.30 0.0 0 0 611.30 260.80
  L 651.70 260.80
  A 0.30 0.30 0.0 0 0 652.00 260.50
  L 652.00 64.30
  Z
  M 428.82 260.33
  L 437.00 236.98
  Q 437.14 236.57 436.70 236.56
  Q 400.87 236.36 365.01 236.20
  C 364.14 236.19 363.09 236.77 361.99 236.44
  A 0.70 0.69 -81.6 0 1 361.50 235.77
  L 361.50 64.50
  A 0.50 0.50 0.0 0 0 361.00 64.00
  L 321.25 64.00
  Q 320.75 64.00 320.75 64.50
  L 320.75 260.25
  Q 320.75 260.75 321.25 260.75
  L 428.24 260.75
  Q 428.68 260.75 428.82 260.33
  Z
  M 554.32 64.27
  Q 551.17 64.08 548.00 64.08
  Q 500.28 64.00 452.71 63.99
  A 0.45 0.45 0.0 0 0 452.26 64.44
  C 452.34 129.72 452.38 195.01 452.10 260.32
  Q 452.10 260.75 452.53 260.75
  L 579.71 260.75
  Q 580.14 260.75 580.35 260.38
  Q 587.53 247.72 594.99 235.22
  C 595.72 234.00 596.49 232.35 596.49 230.74
  Q 596.51 161.53 596.29 92.31
  Q 596.28 90.19 594.70 87.30
  Q 588.39 75.79 581.71 64.45
  Q 581.46 64.02 580.96 64.01
  Q 568.44 63.96 556.00 64.02
  C 555.47 64.03 554.99 64.31 554.32 64.27
  Z
  M 770.99 202.55
  Q 769.91 198.39 768.23 194.29
  Q 741.80 129.63 715.20 64.62
  A 1.01 1.01 0.0 0 0 714.27 64.00
  L 668.91 64.00
  A 0.66 0.66 0.0 0 0 668.25 64.66
  L 668.25 260.09
  Q 668.25 260.75 668.91 260.75
  L 708.75 260.75
  Q 709.25 260.75 709.25 260.25
  L 709.26 127.00
  Q 709.26 121.45 710.95 126.74
  Q 712.62 131.93 715.80 139.45
  Q 741.32 199.77 766.52 260.25
  Q 766.73 260.75 767.27 260.75
  L 812.25 260.75
  Q 812.75 260.75 812.75 260.25
  L 812.75 64.50
  A 0.50 0.50 0.0 0 0 812.25 64.00
  L 772.77 64.00
  A 0.52 0.51 -0.5 0 0 772.25 64.52
  Q 772.26 128.78 772.24 193.10
  C 772.23 196.05 771.86 199.36 771.73 202.47
  A 0.38 0.38 0.0 0 1 770.99 202.55
  Z
  M 870.32 147.39
  L 870.09 65.05
  Q 870.09 64.00 869.04 64.00
  L 830.14 64.00
  Q 829.53 64.00 829.54 64.61
  L 829.60 260.40
  A 0.36 0.35 0.0 0 0 829.96 260.75
  L 869.54 260.75
  Q 870.01 260.75 870.01 260.28
  L 870.33 174.79
  A 0.31 0.31 0.0 0 1 870.90 174.62
  L 925.75 260.41
  Q 925.98 260.77 926.41 260.77
  L 974.02 260.74
  Q 975.91 260.74 974.88 259.15
  Q 943.78 210.91 912.20 161.76
  Q 910.96 159.83 911.80 158.56
  Q 942.45 112.43 972.84 66.12
  Q 973.31 65.42 973.56 65.09
  A 0.68 0.68 0.0 0 0 973.01 64.00
  L 924.61 64.00
  A 1.19 1.18 -73.7 0 0 923.61 64.55
  L 870.68 147.49
  A 0.20 0.19 -29.3 0 1 870.32 147.39
  Z
  M 1034.50 146.66
  L 1034.50 92.00
  Q 1034.50 91.50 1035.00 91.50
  L 1078.42 91.50
  Q 1078.80 91.50 1078.97 91.17
  L 1092.54 65.59
  A 1.08 1.08 0.0 0 0 1091.59 64.00
  L 994.10 64.00
  A 0.28 0.28 0.0 0 0 993.82 64.28
  L 993.79 259.64
  Q 993.79 260.75 994.89 260.75
  L 1137.26 260.75
  Q 1138.27 260.75 1138.27 259.74
  L 1138.24 179.15
  A 3.07 3.07 0.0 0 0 1137.12 176.78
  L 1114.24 157.97
  Q 1112.92 156.88 1114.19 155.74
  Q 1123.38 147.46 1132.51 140.27
  C 1135.85 137.65 1134.28 119.53 1134.28 116.03
  Q 1134.24 90.29 1134.25 64.51
  Q 1134.25 64.00 1133.74 64.00
  L 1094.61 64.00
  A 0.78 0.77 88.9 0 0 1093.84 64.81
  C 1094.90 90.67 1094.26 116.80 1094.23 142.68
  Q 1094.22 143.77 1093.90 146.49
  A 0.56 0.55 -86.5 0 1 1093.35 146.98
  L 1034.91 147.07
  Q 1034.50 147.07 1034.50 146.66
  Z
  M 1153.13 156.43
  Q 1152.85 207.60 1153.05 260.05
  Q 1153.06 260.75 1153.75 260.75
  L 1298.75 260.75
  Q 1299.25 260.75 1299.25 260.25
  L 1299.25 64.50
  Q 1299.25 64.00 1298.75 64.00
  L 1257.56 64.00
  A 0.97 0.83 89.0 0 0 1256.74 65.00
  C 1256.75 65.43 1257.00 65.75 1257.00 66.35
  Q 1257.00 149.67 1257.00 232.73
  A 0.52 0.52 0.0 0 1 1256.48 233.25
  L 1196.16 233.25
  A 0.59 0.59 0.0 0 1 1195.57 232.66
  L 1195.61 92.05
  A 0.58 0.58 0.0 0 1 1196.20 91.47
  L 1241.71 91.57
  Q 1242.17 91.57 1242.38 91.16
  L 1255.75 64.96
  A 0.44 0.44 0.0 0 0 1255.39 64.32
  Q 1254.48 64.25 1253.50 64.24
  Q 1203.54 64.00 1154.23 63.96
  Q 1153.40 63.96 1153.38 64.79
  C 1152.87 95.53 1153.30 125.97 1153.13 156.43
  Z
  M 1395.21 203.87
  C 1395.26 204.37 1395.21 204.82 1395.46 205.27
  Q 1410.86 232.83 1426.45 260.34
  Q 1426.70 260.79 1427.23 260.79
  L 1473.34 260.73
  Q 1474.84 260.72 1474.11 259.41
  Q 1447.22 211.34 1419.92 162.52
  Q 1418.53 160.03 1419.78 157.80
  Q 1445.66 111.40 1471.48 64.90
  A 0.56 0.56 0.0 0 0 1470.99 64.07
  L 1425.97 63.97
  A 2.53 2.52 13.9 0 0 1423.74 65.31
  L 1395.40 119.05
  Q 1395.10 119.62 1394.79 119.05
  Q 1379.92 91.75 1364.99 64.47
  Q 1364.72 63.98 1364.16 63.99
  L 1318.34 64.03
  A 0.79 0.79 0.0 0 0 1317.65 65.21
  Q 1343.58 111.13 1369.31 157.05
  C 1370.91 159.91 1371.12 160.97 1369.54 163.79
  Q 1342.52 211.95 1315.46 260.20
  Q 1315.15 260.75 1315.78 260.75
  L 1362.70 260.75
  Q 1363.32 260.75 1363.63 260.21
  L 1394.87 203.80
  A 0.18 0.18 0.0 0 1 1395.21 203.87
  Z"
/>
<path fill="#000000" d="
  M 0.00 260.77
  L 0.00 66.44
  L 0.29 64.48
  A 0.62 0.61 4.3 0 1 0.90 63.96
  Q 64.08 64.04 127.25 63.99
  Q 130.30 63.99 136.23 64.38
  Q 136.83 64.42 136.58 64.96
  Q 131.93 75.02 127.62 85.07
  Q 127.16 86.15 125.70 88.14
  A 0.90 0.86 17.2 0 1 124.98 88.50
  L 36.22 88.49
  A 0.23 0.22 90.0 0 0 36.00 88.72
  L 36.00 235.73
  Q 36.00 236.22 36.48 236.22
  L 140.95 236.32
  A 0.79 0.79 0.0 0 1 141.69 237.38
  L 133.37 260.35
  A 0.63 0.62 10.0 0 1 132.78 260.76
  L 0.00 260.77
  Z"
/>
<path fill="#000000" d="
  M 304.01 260.39
  A 0.37 0.37 0.0 0 1 303.64 260.76
  L 158.12 260.76
  A 0.37 0.37 0.0 0 1 157.75 260.39
  L 157.75 64.39
  A 0.37 0.37 0.0 0 1 158.12 64.02
  L 303.64 64.02
  A 0.37 0.37 0.0 0 1 304.01 64.39
  L 304.01 260.39
  Z
  M 246.32 91.69
  L 202.35 91.43
  A 1.58 1.58 0.0 0 0 200.76 93.01
  Q 200.75 162.79 200.72 233.19
  A 0.08 0.07 0.0 0 0 200.80 233.26
  L 261.37 233.25
  Q 261.75 233.25 261.75 232.88
  L 261.75 67.67
  Q 261.75 66.73 260.81 66.77
  Q 259.72 66.82 258.90 68.44
  Q 253.20 79.73 247.26 91.13
  A 1.07 1.06 14.0 0 1 246.32 91.69
  Z"
/>
<rect fill="#000000" x="611.00" y="64.00" width="41.00" height="196.80" rx="0.30"/>
<path fill="#000000" d="
  M 437.00 236.98
  L 428.82 260.33
  Q 428.68 260.75 428.24 260.75
  L 321.25 260.75
  Q 320.75 260.75 320.75 260.25
  L 320.75 64.50
  Q 320.75 64.00 321.25 64.00
  L 361.00 64.00
  A 0.50 0.50 0.0 0 1 361.50 64.50
  L 361.50 235.77
  A 0.70 0.69 -81.6 0 0 361.99 236.44
  C 363.09 236.77 364.14 236.19 365.01 236.20
  Q 400.87 236.36 436.70 236.56
  Q 437.14 236.57 437.00 236.98
  Z"
/>
<path fill="#000000" d="
  M 554.32 64.27
  C 554.99 64.31 555.47 64.03 556.00 64.02
  Q 568.44 63.96 580.96 64.01
  Q 581.46 64.02 581.71 64.45
  Q 588.39 75.79 594.70 87.30
  Q 596.28 90.19 596.29 92.31
  Q 596.51 161.53 596.49 230.74
  C 596.49 232.35 595.72 234.00 594.99 235.22
  Q 587.53 247.72 580.35 260.38
  Q 580.14 260.75 579.71 260.75
  L 452.53 260.75
  Q 452.10 260.75 452.10 260.32
  C 452.38 195.01 452.34 129.72 452.26 64.44
  A 0.45 0.45 0.0 0 1 452.71 63.99
  Q 500.28 64.00 548.00 64.08
  Q 551.17 64.08 554.32 64.27
  Z
  M 540.62 91.49
  L 493.30 91.67
  Q 492.78 91.68 492.78 92.20
  L 492.69 232.62
  Q 492.69 233.25 493.31 233.25
  L 555.49 233.25
  Q 556.00 233.25 556.00 232.74
  Q 556.52 150.81 556.06 68.88
  C 556.05 67.85 555.63 66.47 555.56 65.32
  A 0.72 0.72 0.0 0 0 554.22 64.99
  C 553.16 66.72 552.97 68.82 552.05 70.50
  Q 546.40 80.74 541.13 91.17
  A 0.59 0.59 0.0 0 1 540.62 91.49
  Z"
/>
<path fill="#000000" d="
  M 770.99 202.55
  A 0.38 0.38 0.0 0 0 771.73 202.47
  C 771.86 199.36 772.23 196.05 772.24 193.10
  Q 772.26 128.78 772.25 64.52
  A 0.52 0.51 -0.5 0 1 772.77 64.00
  L 812.25 64.00
  A 0.50 0.50 0.0 0 1 812.75 64.50
  L 812.75 260.25
  Q 812.75 260.75 812.25 260.75
  L 767.27 260.75
  Q 766.73 260.75 766.52 260.25
  Q 741.32 199.77 715.80 139.45
  Q 712.62 131.93 710.95 126.74
  Q 709.26 121.45 709.26 127.00
  L 709.25 260.25
  Q 709.25 260.75 708.75 260.75
  L 668.91 260.75
  Q 668.25 260.75 668.25 260.09
  L 668.25 64.66
  A 0.66 0.66 0.0 0 1 668.91 64.00
  L 714.27 64.00
  A 1.01 1.01 0.0 0 1 715.20 64.62
  Q 741.80 129.63 768.23 194.29
  Q 769.91 198.39 770.99 202.55
  Z"
/>
<path fill="#000000" d="
  M 870.32 147.39
  A 0.20 0.19 -29.3 0 0 870.68 147.49
  L 923.61 64.55
  A 1.19 1.18 -73.7 0 1 924.61 64.00
  L 973.01 64.00
  A 0.68 0.68 0.0 0 1 973.56 65.09
  Q 973.31 65.42 972.84 66.12
  Q 942.45 112.43 911.80 158.56
  Q 910.96 159.83 912.20 161.76
  Q 943.78 210.91 974.88 259.15
  Q 975.91 260.74 974.02 260.74
  L 926.41 260.77
  Q 925.98 260.77 925.75 260.41
  L 870.90 174.62
  A 0.31 0.31 0.0 0 0 870.33 174.79
  L 870.01 260.28
  Q 870.01 260.75 869.54 260.75
  L 829.96 260.75
  A 0.36 0.35 0.0 0 1 829.60 260.40
  L 829.54 64.61
  Q 829.53 64.00 830.14 64.00
  L 869.04 64.00
  Q 870.09 64.00 870.09 65.05
  L 870.32 147.39
  Z"
/>
<path fill="#000000" d="
  M 1034.91 147.07
  L 1093.35 146.98
  A 0.56 0.55 -86.5 0 0 1093.90 146.49
  Q 1094.22 143.77 1094.23 142.68
  C 1094.26 116.80 1094.90 90.67 1093.84 64.81
  A 0.78 0.77 88.9 0 1 1094.61 64.00
  L 1133.74 64.00
  Q 1134.25 64.00 1134.25 64.51
  Q 1134.24 90.29 1134.28 116.03
  C 1134.28 119.53 1135.85 137.65 1132.51 140.27
  Q 1123.38 147.46 1114.19 155.74
  Q 1112.92 156.88 1114.24 157.97
  L 1137.12 176.78
  A 3.07 3.07 0.0 0 1 1138.24 179.15
  L 1138.27 259.74
  Q 1138.27 260.75 1137.26 260.75
  L 994.89 260.75
  Q 993.79 260.75 993.79 259.64
  L 993.82 64.28
  A 0.28 0.28 0.0 0 1 994.10 64.00
  L 1091.59 64.00
  A 1.08 1.08 0.0 0 1 1092.54 65.59
  L 1078.97 91.17
  Q 1078.80 91.50 1078.42 91.50
  L 1035.00 91.50
  Q 1034.50 91.50 1034.50 92.00
  L 1034.50 146.66
  Q 1034.50 147.07 1034.91 147.07
  Z
  M 1096.00 171.91
  A 0.41 0.41 0.0 0 0 1095.59 171.50
  L 1034.91 171.50
  A 0.41 0.41 0.0 0 0 1034.50 171.91
  L 1034.50 232.85
  A 0.41 0.41 0.0 0 0 1034.91 233.26
  L 1095.59 233.26
  A 0.41 0.41 0.0 0 0 1096.00 232.85
  L 1096.00 171.91
  Z"
/>
<path fill="#000000" d="
  M 1153.13 156.43
  C 1153.30 125.97 1152.87 95.53 1153.38 64.79
  Q 1153.40 63.96 1154.23 63.96
  Q 1203.54 64.00 1253.50 64.24
  Q 1254.48 64.25 1255.39 64.32
  A 0.44 0.44 0.0 0 1 1255.75 64.96
  L 1242.38 91.16
  Q 1242.17 91.57 1241.71 91.57
  L 1196.20 91.47
  A 0.58 0.58 0.0 0 0 1195.61 92.05
  L 1195.57 232.66
  A 0.59 0.59 0.0 0 0 1196.16 233.25
  L 1256.48 233.25
  A 0.52 0.52 0.0 0 0 1257.00 232.73
  Q 1257.00 149.67 1257.00 66.35
  C 1257.00 65.75 1256.75 65.43 1256.74 65.00
  A 0.97 0.83 89.0 0 1 1257.56 64.00
  L 1298.75 64.00
  Q 1299.25 64.00 1299.25 64.50
  L 1299.25 260.25
  Q 1299.25 260.75 1298.75 260.75
  L 1153.75 260.75
  Q 1153.06 260.75 1153.05 260.05
  Q 1152.85 207.60 1153.13 156.43
  Z"
/>
<path fill="#000000" d="
  M 1395.21 203.87
  A 0.18 0.18 0.0 0 0 1394.87 203.80
  L 1363.63 260.21
  Q 1363.32 260.75 1362.70 260.75
  L 1315.78 260.75
  Q 1315.15 260.75 1315.46 260.20
  Q 1342.52 211.95 1369.54 163.79
  C 1371.12 160.97 1370.91 159.91 1369.31 157.05
  Q 1343.58 111.13 1317.65 65.21
  A 0.79 0.79 0.0 0 1 1318.34 64.03
  L 1364.16 63.99
  Q 1364.72 63.98 1364.99 64.47
  Q 1379.92 91.75 1394.79 119.05
  Q 1395.10 119.62 1395.40 119.05
  L 1423.74 65.31
  A 2.53 2.52 13.9 0 1 1425.97 63.97
  L 1470.99 64.07
  A 0.56 0.56 0.0 0 1 1471.48 64.90
  Q 1445.66 111.40 1419.78 157.80
  Q 1418.53 160.03 1419.92 162.52
  Q 1447.22 211.34 1474.11 259.41
  Q 1474.84 260.72 1473.34 260.73
  L 1427.23 260.79
  Q 1426.70 260.79 1426.45 260.34
  Q 1410.86 232.83 1395.46 205.27
  C 1395.21 204.82 1395.26 204.37 1395.21 203.87
  Z"
/>
<path fill="#ffffff" d="
  M 541.13 91.17
  Q 546.40 80.74 552.05 70.50
  C 552.97 68.82 553.16 66.72 554.22 64.99
  A 0.72 0.72 0.0 0 1 555.56 65.32
  C 555.63 66.47 556.05 67.85 556.06 68.88
  Q 556.52 150.81 556.00 232.74
  Q 556.00 233.25 555.49 233.25
  L 493.31 233.25
  Q 492.69 233.25 492.69 232.62
  L 492.78 92.20
  Q 492.78 91.68 493.30 91.67
  L 540.62 91.49
  A 0.59 0.59 0.0 0 0 541.13 91.17
  Z"
/>
<path fill="#ffffff" d="
  M 202.35 91.43
  L 246.32 91.69
  A 1.07 1.06 14.0 0 0 247.26 91.13
  Q 253.20 79.73 258.90 68.44
  Q 259.72 66.82 260.81 66.77
  Q 261.75 66.73 261.75 67.67
  L 261.75 232.88
  Q 261.75 233.25 261.37 233.25
  L 200.80 233.26
  A 0.08 0.07 0.0 0 1 200.72 233.19
  Q 200.75 162.79 200.76 93.01
  A 1.58 1.58 0.0 0 1 202.35 91.43
  Z"
/>
<rect fill="#ffffff" x="1034.50" y="171.50" width="61.50" height="61.76" rx="0.41"/>
</svg>
